<?xml version="1.0" encoding="UTF-8"?>
<svg version="1.1" xmlns="http://www.w3.org/2000/svg" width="200" height="200">
<path d="M0 0 C4.29 0 8.58 0 13 0 C13.33 0.99 13.66 1.98 14 3 C15.01803711 2.27417725 15.01803711 2.27417725 16.05664062 1.53369141 C21.14256596 -1.11642331 26.72912195 -0.59668859 32.34716797 -0.61083984 C34.49547233 -0.62497022 36.63801515 -0.69239269 38.78515625 -0.76171875 C48.75152172 -0.918791 48.75152172 -0.918791 52.08203125 1.53222656 C53.82582518 3.89862861 55 6.00710662 55 9 C55.66 9 56.32 9 57 9 C57.268125 8.2575 57.53625 7.515 57.8125 6.75 C58.9877614 4.02834203 59.98019465 2.16137118 62 0 C64.26831055 -0.45410156 64.26831055 -0.45410156 66.88671875 -0.390625 C67.82451172 -0.37773438 68.76230469 -0.36484375 69.72851562 -0.3515625 C70.70498047 -0.31804687 71.68144531 -0.28453125 72.6875 -0.25 C73.67556641 -0.23195313 74.66363281 -0.21390625 75.68164062 -0.1953125 C78.12206842 -0.14815447 80.56054769 -0.08236042 83 0 C86.30417422 6.86954798 89.033631 13.63011293 91 21 C91.66 21 92.32 21 93 21 C93.103125 20.33484375 93.20625 19.6696875 93.3125 18.984375 C94.17310466 15.24856842 95.55472197 11.78820423 97 8.25 C97.27328125 7.56550781 97.5465625 6.88101563 97.828125 6.17578125 C99.86399502 1.13600498 99.86399502 1.13600498 101 0 C103.18639453 -0.07258946 105.37500389 -0.08373783 107.5625 -0.0625 C109.35880859 -0.04896484 109.35880859 -0.04896484 111.19140625 -0.03515625 C112.11824219 -0.02355469 113.04507813 -0.01195313 114 0 C113.37762752 5.30834718 111.65897289 9.76851208 109.61328125 14.65234375 C109.27378952 15.47070206 108.93429779 16.28906036 108.58451843 17.13221741 C107.86583118 18.85739365 107.14365704 20.58112095 106.41821289 22.3034668 C105.31987233 24.9199376 104.24255736 27.54442047 103.16601562 30.16992188 C102.46221189 31.85209626 101.75717323 33.5337546 101.05078125 35.21484375 C100.73490555 35.99109604 100.41902985 36.76734833 100.09358215 37.56712341 C97.56039657 43.49421774 94.28447679 48.90158427 88.75 52.4375 C81.48937802 53.92262722 75.56312767 53.42424052 69 50 C70.1094072 46.51329166 71.26337666 43.22515763 73 40 C75.01822917 40.29296875 77.03645833 40.5859375 79.0546875 40.87890625 C81.08140667 41.1684297 81.08140667 41.1684297 83 40 C82.42133149 35.73058929 81.39736392 32.12543909 79.71484375 28.1640625 C79.04291992 26.56884766 79.04291992 26.56884766 78.35742188 24.94140625 C77.88884766 23.84699219 77.42027344 22.75257812 76.9375 21.625 C76.22883789 19.94857422 76.22883789 19.94857422 75.50585938 18.23828125 C74.3429918 15.48968515 73.17421814 12.74376168 72 10 C68.09172829 13.68342759 68.09172829 13.68342759 65 18 C66.33301215 22.94475452 69.58010704 26.7390877 72.625 30.75 C78 37.8853125 78 37.8853125 78 39 C62.54439462 40.22690583 62.54439462 40.22690583 58.7578125 37.21875 C57.53370509 35.16167009 56.65190645 33.29963851 56 31 C53.97334002 32.95677515 52.186573 34.68737391 50.73706055 37.11621094 C49 39 49 39 46.27270508 39.45410156 C45.19915771 39.4331543 44.12561035 39.41220703 43.01953125 39.390625 C41.44715698 39.37563965 41.44715698 39.37563965 39.84301758 39.36035156 C38.51294678 39.32393555 37.18287598 39.28751953 35.8125 39.25 C31.584375 39.1675 27.35625 39.085 23 39 C23 30.09 23 21.18 23 12 C16.22510108 14.01151263 16.22510108 14.01151263 15 17 C14.84777027 18.66565749 14.75082785 20.33656496 14.68359375 22.0078125 C14.64169922 22.99394531 14.59980469 23.98007813 14.55664062 24.99609375 C14.51732422 26.02863281 14.47800781 27.06117187 14.4375 28.125 C14.39431641 29.16527344 14.35113281 30.20554687 14.30664062 31.27734375 C14.20037232 33.8513983 14.09966473 36.42568131 14 39 C9.38 39 4.76 39 0 39 C0 26.13 0 13.26 0 0 Z M37 6 C37 14.91 37 23.82 37 33 C41.18903868 28.8725379 41.18903868 28.8725379 44.875 24.4375 C45.30554687 23.87933594 45.73609375 23.32117188 46.1796875 22.74609375 C47.15202339 21.04043828 47.15202339 21.04043828 46.8828125 19.14453125 C45.66010642 16.17432932 43.90961316 13.82797777 42 11.25 C41.278125 10.26515625 40.55625 9.2803125 39.8125 8.265625 C39.214375 7.51796875 38.61625 6.7703125 38 6 C37.67 6 37.34 6 37 6 Z " fill="#000000" transform="translate(11,80)"/>
<path d="M0 0 C4.29496196 3.47687397 7.4365298 7.69305168 8.0234375 13.234375 C8.02923828 14.76771484 8.02923828 14.76771484 8.03515625 16.33203125 C8.05191406 17.35167969 8.06867188 18.37132813 8.0859375 19.421875 C7.66883936 22.83490389 6.86521553 24.71388631 4.72265625 27.39453125 C1.03515625 27.70703125 1.03515625 27.70703125 -2.27734375 27.39453125 C-2.48230469 26.56308594 -2.68726563 25.73164062 -2.8984375 24.875 C-3.16785156 23.78832031 -3.43726563 22.70164062 -3.71484375 21.58203125 C-3.98167969 20.50308594 -4.24851563 19.42414063 -4.5234375 18.3125 C-5.03811787 16.32044695 -5.6267155 14.34641601 -6.27734375 12.39453125 C-11.39718281 9.68402822 -16.37425773 8.87844013 -21.96484375 10.39453125 C-25.98396973 12.82117335 -27.94854517 14.87835307 -29.27734375 19.39453125 C-29.68701619 24.2771579 -29.02189385 27.42247974 -26.02734375 31.33203125 C-21.37411426 34.82195337 -18.08387344 35.6646024 -12.27734375 35.39453125 C-12.27734375 33.41453125 -12.27734375 31.43453125 -12.27734375 29.39453125 C-13.53546875 29.31203125 -14.79359375 29.22953125 -16.08984375 29.14453125 C-18.96931365 28.77183391 -20.04441233 28.5851115 -22.33984375 26.70703125 C-23.61500849 23.5616249 -23.18969957 21.62286722 -22.27734375 18.39453125 C-20.27734375 16.39453125 -20.27734375 16.39453125 -16.83984375 16.08203125 C-13.27734375 16.39453125 -13.27734375 16.39453125 -11.625 17.63671875 C-10.02937068 19.71797439 -9.62871641 21.26394956 -9.15234375 23.83203125 C-9.00539062 24.59386719 -8.8584375 25.35570313 -8.70703125 26.140625 C-8.42413764 27.62453055 -8.15044768 29.11022507 -7.88671875 30.59765625 C-7.40309595 32.71633489 -7.40309595 32.71633489 -4.65234375 33.70703125 C0.31245059 34.71837825 3.92209546 34.35762191 8.41015625 31.95703125 C11.74430581 28.26243308 13.12934949 24.05873652 14.72265625 19.39453125 C15.05265625 19.39453125 15.38265625 19.39453125 15.72265625 19.39453125 C16.40554554 28.4807526 14.59133106 34.99179311 8.97265625 42.20703125 C4.6174609 46.98333963 -1.62981344 50.03642869 -8.0625 50.66796875 C-17.27639335 50.95350061 -23.74033796 49.6112778 -30.6015625 43.234375 C-37.41648952 35.90557556 -39.379026 29.38481275 -39.27734375 19.39453125 C-37.81547366 11.37861026 -33.62368047 4.8376038 -27.32421875 -0.27734375 C-18.40829588 -6.06248454 -8.64487506 -5.96376072 0 0 Z " fill="#34ABEF" transform="translate(165.27734375,84.60546875)"/>
<path d="M0 0 C2.0625 1.625 2.0625 1.625 3 4 C2.79105485 9.95493671 2.79105485 9.95493671 0.72265625 12.6875 C-2.03214678 14.78639755 -4.48312857 14.47480442 -7.8359375 14.34375 C-10 14 -10 14 -12.5625 12.4375 C-14.53974912 9.08477323 -14.48686939 6.82540234 -14 3 C-10.55874998 -1.91607146 -5.24255554 -1.38420905 0 0 Z " fill="#000000" transform="translate(47,63)"/>
<path d="M0 0 C2 3 2 3 1.75 5.5625 C1 8 1 8 -1 10 C-3.9375 10.375 -3.9375 10.375 -7 10 C-9 8.375 -9 8.375 -10 6 C-9.3125 2.8125 -9.3125 2.8125 -8 0 C-5.06791253 -1.46604374 -3.11702298 -0.77925574 0 0 Z " fill="#32A3E5" transform="translate(184,89)"/>
</svg>
